<svg xmlns="http://www.w3.org/2000/svg" height="48" viewBox="0 -960 960 960" width="48" stroke-width="10" ><path d="M137-145q-28.725 0-50.862-22.137Q64-189.275 64-218v-524q0-28.725 22.138-50.862Q108.275-815 137-815h686q28.725 0 50.862 22.138Q896-770.725 896-742v524q0 28.725-22.138 50.863Q851.725-145 823-145H137Zm686-528L499-464.032q-5.25 3.032-9.625 4.532T480-458q-5 0-9.375-1.5T461-464.032L137-673v455h686v-455ZM480-522l343-220H138l342 220ZM137-673v6-47.914 1.329V-742v28-.912V-667v-6 455-455Z" fill="rgb(230, 230, 230)" /></svg>